Coordinates
version=1
nRows=24
nColumns=19
inDegrees=yes

Units are S.I. units (second, meters, Newtons, ...)
If the header above contains a line with 'inDegrees', this indicates whether rotational values are in degrees (yes) or radians (no).

endheader
time	pelvis_tilt	pelvis_list	pelvis_rotation	pelvis_tx	pelvis_ty	pelvis_tz	hip_flexion_r	hip_adduction_r	hip_rotation_r	knee_angle_r	knee_angle_r_beta	ankle_angle_r	hip_flexion_l	hip_adduction_l	hip_rotation_l	knee_angle_l	knee_angle_l_beta	ankle_angle_l
     14.98000000	     -4.75604719	     -3.72358293	     -6.62803805	      2.38179816	      1.02368069	      1.07339236	     28.77023941	     11.15410175	     -2.43697563	      5.78322713	      0.10093635	      6.78949334	    -21.72592848	     -4.35992427	    -16.32065777	     67.02621042	      1.16982806	    -13.83833986
     14.98666667	     -4.50675848	     -4.22089909	     -6.73869768	      2.38061973	      1.01973483	      1.07341836	     28.76925522	     11.43776796	     -3.77816886	      8.11989870	      0.14171897	      6.24542308	    -20.47363228	     -4.94974831	    -15.39425635	     71.83078738	      1.25368374	    -13.55420089
     14.99333333	     -4.34847913	     -4.73344330	     -6.93399293	      2.37920414	      1.01525447	      1.07330508	     29.09465406	     11.67076804	     -5.26969560	     11.17010687	      0.19495514	      5.67089227	    -19.08343777	     -5.54817323	    -14.63574448	     76.53877819	      1.33585368	    -13.18063826
     15.00000000	     -3.56555832	     -5.52126504	     -7.27754222	      2.37765373	      1.01118223	      1.07303682	     28.73395095	     12.08598085	     -6.69881706	     14.47234663	      0.25259010	      4.88614595	    -18.48818199	     -6.37468686	    -14.34587208	     80.94841191	      1.41281631	    -12.67898092
     15.00666667	     -4.28156838	     -5.61833416	     -7.60986651	      2.37573238	      1.00486238	      1.07266605	     30.45668477	     11.80171125	     -8.11650809	     18.80332252	      0.32817989	      4.73114385	    -15.90389349	     -6.63500037	    -13.56481348	     85.53638153	      1.49289149	    -12.07091027
     15.01333333	     -4.29603711	     -5.98850849	     -7.98886134	      2.37375351	      0.99927443	      1.07204934	     31.25808364	     11.68619554	     -9.33445412	     23.01616275	      0.40170782	      4.57487960	    -14.16693713	     -7.14125672	    -13.10548417	     89.78284437	      1.56700625	    -11.35918804
     15.02000000	     -4.34788893	     -6.29540347	     -8.38334565	      2.37157959	      0.99359528	      1.07124774	     32.06102966	     11.48472112	    -10.27923102	     27.28566406	      0.47622468	      4.73660280	    -12.29508396	     -7.60884560	    -12.64751651	     93.84190145	      1.63785016	    -10.56688499
     15.02666667	     -4.38938112	     -6.57466989	     -8.75592400	      2.36924764	      0.98805643	      1.07029411	     32.72844785	     11.27291583	    -10.89567382	     31.43173931	      0.54858734	      5.39512985	    -10.33704659	     -8.10614272	    -12.18244334	     97.68638649	      1.70494908	     -9.72356449
     15.03333333	     -4.47000349	     -6.77718347	     -9.11224355	      2.36666567	      0.98274519	      1.06927706	     33.29127778	     11.06047140	    -11.14081555	     35.37146443	      0.61734852	      6.50635429	     -8.18393925	     -8.55218697	    -11.63447034	    101.32229449	      1.76840764	     -8.84209871
     15.04000000	     -4.60342237	     -6.93005402	     -9.44500816	      2.36390586	      0.97778509	      1.06828747	     33.70585046	     10.90467244	    -11.05027587	     38.99074917	      0.68051695	      8.05272478	     -5.82298903	     -8.99158741	    -11.00724800	    104.72127065	      1.82773097	     -7.98404725
     15.04666667	     -4.74901558	     -7.03691855	     -9.69641550	      2.36089570	      0.97336014	      1.06730719	     33.89395664	     10.78732001	    -10.72310395	     42.20664425	      0.73664491	      9.99254070	     -3.25612541	     -9.42474652	    -10.23495411	    107.86542138	      1.88260675	     -7.19029058
     15.05333333	     -4.95028205	     -7.08819248	     -9.86529337	      2.35776527	      0.96948516	      1.06640495	     33.86150608	     10.70694084	    -10.19725537	     44.95114807	      0.78454554	     12.24081249	     -0.44598294	     -9.82695658	     -9.30603783	    110.72264239	      1.93247467	     -6.43036335
     15.06000000	     -5.11893530	     -7.12810857	     -9.87135491	      2.35455935	      0.96636442	      1.06550328	     33.48230615	     10.62007569	     -9.65136995	     47.17190861	      0.82330512	     14.67900138	      2.52685347	    -10.20787344	     -8.16635581	    113.24901298	      1.97656815	     -5.75103472
     15.06666667	     -5.35572890	     -7.09225442	     -9.76302567	      2.35134915	      0.96382702	      1.06473229	     32.86854416	     10.49833469	     -9.04659898	     48.86653345	      0.85288190	     17.14552474	      5.74830120	    -10.49200013	     -6.86318570	    115.42795202	      2.01459781	     -5.12316998
     15.07333333	     -5.60464441	     -6.99733126	     -9.54960583	      2.34826122	      0.96201179	      1.06402522	     31.94821509	     10.33453231	     -8.42865347	     50.01649248	      0.87295247	     19.61203848	      9.10969967	    -10.65778096	     -5.47431724	    117.19241704	      2.04539354	     -4.54572830
     15.08000000	     -5.28787790	     -6.99508536	     -9.46375826	      2.34563180	      0.96161559	      1.06373705	     30.02698287	     10.35084687	     -7.53285840	     50.57510541	      0.88270211	     22.00652469	     11.70877598	    -10.88773920	     -4.42194080	    118.36612572	      2.06587862	     -3.92012353
     15.08666667	     -5.17913344	     -6.81741433	     -9.16221691	      2.34344117	      0.96173776	      1.06338498	     28.05353063	     10.10777495	     -6.83741699	     50.63744798	      0.88379019	     24.13728331	     14.62658589	    -10.81796271	     -3.21117374	    119.09704794	      2.07863562	     -3.30334961
     15.09333333	     -5.62618516	     -6.39551304	     -8.24823312	      2.34163906	      0.96179194	      1.06248836	     26.51668135	      9.30288599	     -6.96792310	     50.35057102	      0.87878324	     25.84816044	     18.42202195	    -10.21033572	     -1.41582349	    119.49342858	      2.08555376	     -2.83359934
     15.10000000	     -5.93816471	     -6.05578492	     -7.58724248	      2.34001180	      0.96236952	      1.06208598	     24.60376841	      8.79460923	     -6.75122974	     49.66466277	      0.86681189	     27.24862333	     21.83065675	     -9.73436478	     -0.10085947	    119.48291927	      2.08537034	     -2.20366614
     15.10666667	     -6.47920910	     -5.73584706	     -6.77328201	      2.33864348	      0.96295483	      1.06166898	     22.77906747	      8.28830034	     -6.78438422	     48.66653537	      0.84939128	     28.24715295	     25.44091727	     -9.19594197	      1.21455294	    119.17042631	      2.07991631	     -1.54728848
     15.11333333	     -6.82402685	     -5.34994694	     -5.99577678	      2.33789620	      0.96433429	      1.06143143	     20.57154156	      7.75127433	     -6.78042443	     47.37047221	      0.82677071	     28.87055735	     28.56813455	     -8.51314522	      2.19752802	    118.35818385	      2.06574000	     -0.78108091
     15.12000000	     -7.23988652	     -4.76718831	     -5.60270756	      2.33790031	      0.96626332	      1.06180406	     18.30832695	      7.21234582	     -6.31039010	     45.84092785	      0.80007512	     28.94372412	     31.38460616	     -7.87341984	      2.44612756	    117.01912754	      2.04236906	     -0.00015708
     15.12666667	     -7.52666681	     -4.22270703	     -4.55453001	      2.33860104	      0.96871182	      1.06140729	     15.76289543	      6.40893370	     -6.81986444	     44.02371310	      0.76835874	     28.57533961	     33.99175519	     -6.83145197	      3.11070663	    115.34492309	      2.01314868	      0.77262615
     15.13333333	     -8.18362145	     -3.53032999	     -4.21830580	      2.33972034	      0.97119617	      1.06200638	     13.61140075	      5.79165917	     -6.46044118	     42.14038901	      0.73548854	     27.61577516	     36.57920002	     -6.20390386	      2.82328826	    113.27466345	      1.97701584	      1.56844728
